<?xml version="1.0" encoding="UTF-8" standalone="no"?>
<svg
   viewBox="0 0 200 90"
   version="1.1"
   id="svg4"
   sodipodi:docname="branding_Phosphor Amber.svg"
   inkscape:version="1.4.2 (f4327f4, 2025-05-13)"
   xmlns:inkscape="http://www.inkscape.org/namespaces/inkscape"
   xmlns:sodipodi="http://sodipodi.sourceforge.net/DTD/sodipodi-0.dtd"
   xmlns="http://www.w3.org/2000/svg"
   xmlns:svg="http://www.w3.org/2000/svg">
  <defs
     id="defs4" />
  <sodipodi:namedview
     id="namedview4"
     pagecolor="#ffffff"
     bordercolor="#000000"
     borderopacity="0.25"
     inkscape:showpageshadow="2"
     inkscape:pageopacity="0.0"
     inkscape:pagecheckerboard="0"
     inkscape:deskcolor="#d1d1d1"
     inkscape:zoom="9.2400002"
     inkscape:cx="86.90476"
     inkscape:cy="26.406926"
     inkscape:window-width="2803"
     inkscape:window-height="1570"
     inkscape:window-x="4291"
     inkscape:window-y="421"
     inkscape:window-maximized="0"
     inkscape:current-layer="svg4" />
  <!-- ChipFX TraceLab logo — Dark theme -->
  <rect
     width="200"
     height="90"
     fill="#060610"
     id="rect1"
     style="fill:#060300;fill-opacity:1" />
  <polyline
     points="2,60 18,60 26,20 34,75 42,40 52,40 60,60 76,60"
     fill="none"
     stroke="#f0c040"
     stroke-width="2.2"
     stroke-linejoin="round"
     stroke-linecap="round"
     id="polyline1"
     transform="translate(0,-0.15305342)"
     style="stroke:#ffaa00;stroke-opacity:1" />
  <polyline
     points="2,70 14,70 22,45 32,82 44,55 58,55 68,70 76,70"
     fill="none"
     stroke="#40C0F0"
     stroke-width="1.5"
     stroke-linejoin="round"
     stroke-linecap="round"
     opacity="0.7"
     id="polyline2"
     style="stroke:#9b5300;stroke-opacity:1" />
  <line
     x1="82"
     y1="8"
     x2="82"
     y2="82"
     stroke="#2a2a4a"
     stroke-width="1"
     id="line2"
     style="stroke:#332200;stroke-opacity:1" />
  <path
     d="m 93.727869,19.211454 v 8.41959 h 1.448758 q 0.77687,0 1.102315,0.304449 0.335944,0.293951 0.335944,0.77687 0,0.472421 -0.335944,0.77687 -0.325445,0.293951 -1.102315,0.293951 h -5.039156 q -0.77687,0 -1.112814,-0.293951 -0.325446,-0.304449 -0.325446,-0.787368 0,-0.472421 0.325446,-0.766372 0.335944,-0.304449 1.112814,-0.304449 h 1.438259 v -8.41959 h -2.33061 v 2.036659 q 0,0.77687 -0.304449,1.112814 -0.293951,0.325445 -0.77687,0.325445 -0.472421,0 -0.77687,-0.325445 -0.293951,-0.335944 -0.293951,-1.112814 v -4.199297 l 11.149134,0.0105 v 4.188799 q 0,0.77687 -0.304449,1.112814 -0.293951,0.325445 -0.77687,0.325445 -0.472421,0 -0.77687,-0.325445 -0.293951,-0.335944 -0.293951,-1.112814 v -2.036659 z m 12.411591,1.039326 v 1.343775 q 1.35427,-0.976337 2.13114,-1.301782 0.78737,-0.325446 1.46976,-0.325446 1.04982,0 2.03666,0.77687 0.67188,0.524912 0.67188,1.070821 0,0.461923 -0.32544,0.787368 -0.31495,0.314947 -0.76637,0.314947 -0.39894,0 -0.83986,-0.398933 -0.44093,-0.398933 -0.78737,-0.398933 -0.45143,0 -1.35428,0.566905 -0.89235,0.566905 -2.23612,1.700715 v 3.243957 h 3.06549 q 0.77687,0 1.10231,0.304449 0.33594,0.293951 0.33594,0.77687 0,0.472421 -0.33594,0.77687 -0.32544,0.293951 -1.10231,0.293951 h -6.49842 q -0.77687,0 -1.11281,-0.293951 -0.32545,-0.304449 -0.32545,-0.787368 0,-0.472421 0.32545,-0.766372 0.33594,-0.304449 1.11281,-0.304449 h 1.28079 V 22.40292 h -0.77687 q -0.77687,0 -1.11281,-0.293951 -0.32545,-0.304449 -0.32545,-0.787368 0,-0.472421 0.32545,-0.766372 0.33594,-0.304449 1.11281,-0.304449 z m 16.28544,9.532404 v -0.503916 q -0.80836,0.430428 -1.7847,0.640393 -0.97634,0.220463 -1.7742,0.220463 -1.73221,0 -2.81353,-0.913347 -1.08132,-0.923845 -1.08132,-2.036659 0,-1.354273 1.37527,-2.50908 1.38577,-1.165305 3.82136,-1.165305 0.97633,0 2.25712,0.209965 v -0.514414 q 0,-0.482919 -0.41993,-0.787368 -0.40943,-0.304449 -1.57474,-0.304449 -0.95534,0 -2.47758,0.377937 -0.56691,0.136477 -0.88185,0.136477 -0.43043,0 -0.73488,-0.304449 -0.29395,-0.314947 -0.29395,-0.797867 0,-0.272954 0.10498,-0.47242 0.10498,-0.199467 0.29395,-0.314948 0.18897,-0.125979 0.78737,-0.29395 0.79787,-0.220464 1.62723,-0.346442 0.82936,-0.136478 1.50125,-0.136478 2.00516,0 3.10748,0.871354 1.11281,0.860856 1.11281,2.362105 v 4.430258 h 0.36744 q 0.77687,0 1.10231,0.304449 0.33595,0.293951 0.33595,0.77687 0,0.472421 -0.33595,0.77687 -0.32544,0.293951 -1.10231,0.293951 z m 0,-3.852855 q -1.29128,-0.251958 -2.3831,-0.251958 -1.31228,0 -2.25712,0.640393 -0.5879,0.409431 -0.5879,0.829361 0,0.304449 0.28345,0.493418 0.52491,0.346442 1.43826,0.346442 0.77687,0 1.7532,-0.304449 0.98684,-0.304449 1.75321,-0.829362 z m 15.3196,-5.291114 q 0.38844,-0.367439 0.79787,-0.367439 0.46192,0 0.75587,0.335944 0.30445,0.325446 0.30445,1.091817 v 1.385768 q 0,0.77687 -0.30445,1.102316 -0.29395,0.325445 -0.77687,0.325445 -0.44092,0 -0.74537,-0.251957 -0.22047,-0.188969 -0.34644,-0.766372 -0.12598,-0.587902 -0.6089,-0.871354 -0.85036,-0.503916 -2.17314,-0.503916 -1.52224,0 -2.44609,0.892351 -0.91335,0.89235 -0.91335,2.257122 0,1.259789 0.88186,1.994666 0.88185,0.724379 2.92901,0.724379 1.34377,0 2.19413,-0.272955 0.50391,-0.167972 0.95534,-0.566905 0.45142,-0.409431 0.81886,-0.409431 0.44093,0 0.75587,0.325445 0.32545,0.325446 0.32545,0.766372 0,0.71388 -0.97634,1.354273 -1.44875,0.95534 -4.24129,0.95534 -2.50908,0 -3.90534,-1.039326 -1.88969,-1.396266 -1.88969,-3.82136 0,-2.299115 1.53275,-3.800364 1.53274,-1.511747 3.99983,-1.511747 0.89235,0 1.65872,0.167972 0.76637,0.167972 1.41726,0.503916 z m 15.9495,5.469584 h -8.82902 q 0.33594,0.83986 1.1863,1.354273 0.86086,0.514414 2.32011,0.514414 1.1968,0 3.18097,-0.514414 0.81886,-0.209964 1.13381,-0.209964 0.43043,0 0.72438,0.304449 0.29395,0.304449 0.29395,0.766371 0,0.41993 -0.31495,0.713881 -0.41993,0.388435 -2.04716,0.745375 -1.62722,0.346442 -3.12847,0.346442 -2.58257,0 -4.13631,-1.459256 -1.54324,-1.459255 -1.54324,-3.590399 0,-2.26762 1.66922,-3.684883 1.67972,-1.427761 3.86335,-1.427761 1.31228,0 2.4041,0.461923 1.10231,0.461923 1.63773,0.997333 0.75587,0.77687 1.24929,1.921178 0.33594,0.797867 0.33594,1.847691 z m -2.3831,-2.15214 q -0.49342,-0.923845 -1.29129,-1.375269 -0.79786,-0.461923 -1.90018,-0.461923 -1.09181,0 -1.88968,0.461923 -0.79787,0.451424 -1.30178,1.375269 z m 9.9865,-4.745205 v 8.41959 h 4.64022 v -2.036659 q 0,-0.77687 0.29395,-1.102315 0.30445,-0.335944 0.78737,-0.335944 0.47242,0 0.76637,0.335944 0.30445,0.325445 0.30445,1.102315 v 4.188799 h -10.19379 q -0.77687,0 -1.11282,-0.293951 -0.32544,-0.304449 -0.32544,-0.787368 0,-0.472421 0.32544,-0.766372 0.33595,-0.304449 1.11282,-0.304449 h 1.24929 v -8.41959 h -1.24929 q -0.77687,0 -1.11282,-0.293951 -0.32544,-0.304449 -0.32544,-0.787368 0,-0.482919 0.32544,-0.77687 0.33595,-0.304449 1.11282,-0.304449 l 4.66122,0.0105 q 0.77687,0 1.10231,0.293951 0.33595,0.293951 0.33595,0.77687 0,0.482919 -0.33595,0.787368 -0.32544,0.293951 -1.10231,0.293951 z m 16.73686,10.57173 v -0.503916 q -0.80837,0.430428 -1.7847,0.640393 -0.97634,0.220463 -1.7742,0.220463 -1.73221,0 -2.81353,-0.913347 -1.08132,-0.923845 -1.08132,-2.036659 0,-1.354273 1.37527,-2.50908 1.38577,-1.165305 3.82136,-1.165305 0.97633,0 2.25712,0.209965 v -0.514414 q 0,-0.482919 -0.41993,-0.787368 -0.40943,-0.304449 -1.57474,-0.304449 -0.95534,0 -2.47758,0.377937 -0.56691,0.136477 -0.88185,0.136477 -0.43043,0 -0.73488,-0.304449 -0.29395,-0.314947 -0.29395,-0.797867 0,-0.272954 0.10498,-0.47242 0.10498,-0.199467 0.29395,-0.314948 0.18897,-0.125979 0.78737,-0.29395 0.79787,-0.220464 1.62723,-0.346442 0.82936,-0.136478 1.50125,-0.136478 2.00516,0 3.10748,0.871354 1.11281,0.860856 1.11281,2.362105 v 4.430258 h 0.36744 q 0.77687,0 1.10231,0.304449 0.33595,0.293951 0.33595,0.77687 0,0.472421 -0.33595,0.77687 -0.32544,0.293951 -1.10231,0.293951 z m 0,-3.852855 q -1.29128,-0.251958 -2.3831,-0.251958 -1.31228,0 -2.25712,0.640393 -0.58791,0.409431 -0.58791,0.829361 0,0.304449 0.28346,0.493418 0.52491,0.346442 1.43826,0.346442 0.77687,0 1.7532,-0.304449 0.98684,-0.304449 1.75321,-0.829362 z m 9.25161,-9.763365 v 4.829191 q 0.78737,-0.514414 1.59574,-0.766372 0.81886,-0.262456 1.64822,-0.262456 2.23613,0 3.78987,1.543242 1.55374,1.543242 1.55374,3.726876 0,2.08915 -1.48026,3.495915 -1.48025,1.396266 -3.90534,1.396266 -0.86086,0 -1.65872,-0.220463 -0.79787,-0.220463 -1.54325,-0.650891 v 0.524912 h -2.51957 q -0.77687,0 -1.11282,-0.293951 -0.32544,-0.304449 -0.32544,-0.787368 0,-0.472421 0.33594,-0.766372 0.33594,-0.304449 1.10232,-0.304449 h 0.36743 v -9.311941 h -0.36743 q -0.77687,0 -1.11282,-0.29395 -0.32544,-0.30445 -0.32544,-0.787369 0,-0.472421 0.32544,-0.766371 0.33595,-0.304449 1.11282,-0.304449 z m 6.43543,9.133471 q 0,-1.333277 -0.93435,-2.257123 -0.93434,-0.923845 -2.28861,-0.923845 -1.34378,0 -2.27812,0.923845 -0.93435,0.923846 -0.93435,2.225628 0,1.186301 0.83986,1.952673 0.83986,0.755873 2.37261,0.755873 1.53274,0 2.3726,-0.755873 0.85036,-0.766372 0.85036,-1.921178 z"
     id="text2"
     style="font-weight:bold;font-size:21.5004px;font-family:'Courier New', Courier, monospace;letter-spacing:1;fill:#ffaa00;stroke-width:0.977292"
     aria-label="TraceLab" />
  <line
     x1="0"
     y1="87"
     x2="200"
     y2="87"
     stroke="#F0C040"
     stroke-width="1.5"
     opacity="0.5"
     id="line3"
     style="stroke:#6a4600;stroke-opacity:1" />
  <path
     style="fill:#ffaa00;fill-opacity:1;stroke:none;stroke-width:0.768913"
     d="m 192.60496,44.662009 c -0.009,-0.03438 -0.0275,-0.30413 -0.0416,-0.59951 -0.0452,-0.944926 -0.0801,-1.280707 -0.15275,-1.468733 -0.0122,-0.03155 -0.0222,-0.08429 -0.0222,-0.117179 0,-0.03286 -0.0112,-0.06675 -0.025,-0.07524 -0.0138,-0.0085 -0.025,-0.03688 -0.025,-0.06305 0,-0.111395 -0.21016,-0.607559 -0.31624,-0.746598 -0.22289,-0.292159 -0.46235,-0.473332 -0.7454,-0.563969 -0.0824,-0.0264 -0.16055,-0.05692 -0.17361,-0.06784 -0.0131,-0.01092 -0.0545,-0.01988 -0.0922,-0.01988 -0.0377,0 -0.0747,-0.01 -0.0822,-0.02221 -0.008,-0.01222 -0.0503,-0.02781 -0.0951,-0.0346 -0.0448,-0.0068 -0.17697,-0.03155 -0.29375,-0.055 -0.31954,-0.06414 -0.53711,-0.08623 -1.09188,-0.110841 -0.27767,-0.01233 -0.55307,-0.03123 -0.612,-0.04204 l -0.10714,-0.01966 0.18734,-0.03106 c 0.10304,-0.01711 0.25582,-0.03177 0.33951,-0.03264 0.0837,-0.0011 0.24105,-0.01293 0.3497,-0.02678 0.10867,-0.01385 0.33246,-0.03595 0.49733,-0.0491 0.16486,-0.01314 0.35314,-0.03557 0.41841,-0.04975 0.0653,-0.01423 0.16643,-0.03639 0.22481,-0.04921 0.49419,-0.108875 0.79565,-0.23886 1.0115,-0.436135 0.1211,-0.110678 0.33116,-0.364739 0.33116,-0.400524 0,-0.0071 0.0293,-0.07782 0.0651,-0.157189 0.0357,-0.07937 0.0747,-0.166796 0.0865,-0.194277 0.0218,-0.051 0.0647,-0.207768 0.17204,-0.630736 0.0767,-0.302328 0.2014,-1.545573 0.20221,-2.017106 5.4e-4,-0.377743 0.045,-0.133688 0.0728,0.400808 0.015,0.287891 0.0373,0.613365 0.0496,0.723276 0.0568,0.509236 0.0778,0.671602 0.0991,0.769174 0.0127,0.05781 0.0361,0.172558 0.0523,0.254991 0.0161,0.08243 0.0394,0.169397 0.052,0.193253 0.0125,0.02386 0.0227,0.0591 0.0227,0.07831 0,0.06934 0.0878,0.307458 0.19462,0.527782 0.17132,0.353427 0.39588,0.544907 0.86701,0.739331 0.0564,0.0233 0.27458,0.08783 0.42466,0.125651 0.055,0.01385 0.13445,0.03568 0.17664,0.04844 0.0422,0.01282 0.10515,0.0233 0.1399,0.0233 0.0348,0 0.0958,0.01097 0.13562,0.02439 0.0995,0.03351 0.46407,0.07066 0.98418,0.100294 0.24042,0.01369 0.49897,0.03259 0.57453,0.04198 l 0.13739,0.01705 -0.11241,0.01917 c -0.10913,0.01863 -0.52063,0.0523 -1.18654,0.09717 -0.1786,0.01206 -0.41466,0.04035 -0.52457,0.06287 -0.10991,0.02254 -0.23356,0.04643 -0.27477,0.05306 -0.0412,0.0066 -0.0974,0.0214 -0.12491,0.03286 -0.0274,0.0114 -0.1174,0.04013 -0.19984,0.06383 -0.3551,0.102005 -0.68926,0.33242 -0.90416,0.623461 -0.1137,0.153985 -0.24269,0.446248 -0.31991,0.724852 -0.0228,0.08243 -0.0518,0.169397 -0.0644,0.193256 -0.0126,0.02384 -0.0229,0.07557 -0.0229,0.114925 0,0.03937 -0.0109,0.104139 -0.0241,0.14397 -0.0288,0.08659 -0.0806,0.570296 -0.14832,1.38433 -0.0155,0.18574 -0.0374,0.388077 -0.0489,0.449637 -0.0181,0.09713 -0.0229,0.103672 -0.0368,0.04953 z"
     id="path6"
     sodipodi:nodetypes="cccsssssssccssscssssssssscssscccsssssssssscssssssssssssscc"
     inkscape:label="Star" />
  <path
     d="m 154.68376,62.512625 h 3.7539 V 55.004828 H 169.3086 V 51.81859 h -10.87094 v -4.992986 h 12.80118 v -3.393767 h -16.55508 z m 17.24486,0 h 4.53548 l 5.3881,-6.860782 5.26967,6.860782 h 4.60653 l -7.49597,-9.729612 7.24729,-9.351176 h -4.52363 l -4.93811,6.567791 -4.91441,-6.567791 h -4.5947 l 7.11703,9.387797 z"
     id="text2-9"
     style="font-size:32.1291px;font-family:'Krona One';-inkscape-font-specification:'Krona One';letter-spacing:-0.654994px;display:inline;fill:#ffaa00;fill-opacity:1;stroke-width:0.167891"
     aria-label="FX"
     inkscape:label="FX" />
  <g
     id="g14"
     inkscape:label="Chip"
     style="display:inline"
     transform="matrix(0.76891135,0,0,0.76891135,56.750417,-33.578064)">
    <path
       style="font-size:38.546px;font-family:'Typo Square Bold Demo';-inkscape-font-specification:'Typo Square Bold Demo';letter-spacing:-0.791104px;display:inline;fill:#ffaa00;fill-opacity:1;stroke-width:0.259402"
       d="m 64.845248,107.75709 h -4.496409 v -0.32465 c 0,-2.51306 -0.127557,-3.90788 -0.382672,-4.18443 -0.306139,-0.32465 -1.817698,-0.48698 -4.534677,-0.48698 h -5.089552 c -2.704224,0 -4.215783,0.16233 -4.534677,0.48698 -0.255116,0.27655 -0.382673,1.65934 -0.382673,4.14836 v 9.00012 c 0,2.54914 0.172203,3.968 0.516609,4.25658 0.293382,0.2525 1.760296,0.37875 4.400741,0.37875 h 5.089552 c 2.640445,0 4.107358,-0.12625 4.40074,-0.37875 0.344406,-0.30061 0.516609,-1.7315 0.516609,-4.29265 v -0.30662 h 4.496409 v 0.30662 c 0,2.05614 -0.127557,3.61327 -0.382672,4.6714 -0.293383,1.16635 -0.829126,2.08621 -1.607228,2.75956 -0.75259,0.63729 -1.734784,1.05813 -2.946582,1.26255 -0.892904,0.14429 -2.38533,0.21644 -4.477276,0.21644 h -5.089552 c -2.091947,0 -3.571616,-0.0722 -4.439008,-0.21644 -1.224554,-0.19239 -2.206748,-0.60723 -2.946583,-1.24451 -0.790858,-0.67336 -1.332979,-1.5932 -1.626361,-2.75955 -0.267872,-1.04611 -0.401807,-2.59724 -0.401807,-4.65338 v -9.00012 c 0,-1.97197 0.07654,-3.3728 0.229604,-4.20247 0.204092,-1.14229 0.644167,-2.06816 1.320223,-2.77759 0.701567,-0.733485 1.677384,-1.238506 2.927448,-1.51506 1.109753,-0.25251 2.755247,-0.378765 4.936484,-0.378765 h 5.089552 c 2.193993,0 3.852243,0.126255 4.97475,0.378765 1.23731,0.288581 2.206748,0.805619 2.908316,1.55113 0.676056,0.70943 1.11613,1.64131 1.320222,2.79563 0.140314,0.80563 0.21047,2.20043 0.21047,4.18443 z m 3.0225,-9.234605 h 4.496409 v 9.883915 c 0.114801,-0.15632 0.242358,-0.30662 0.382672,-0.45091 0.701567,-0.7455 1.671006,-1.26254 2.908315,-1.55112 1.122509,-0.25251 2.512887,-0.37877 4.171138,-0.37877 1.543449,0 2.870048,0.12626 3.9798,0.37877 1.250065,0.27655 2.225882,0.78157 2.927449,1.51505 0.676056,0.70943 1.11613,1.63529 1.320222,2.7776 0.15307,0.82966 0.229605,2.23048 0.229605,4.20246 v 10.37089 h -4.496409 v -10.37089 c 0,-2.48901 -0.127558,-3.8718 -0.382674,-4.14836 -0.318894,-0.32466 -1.830452,-0.48698 -4.534676,-0.48698 h -1.588094 c -2.716978,0 -4.228537,0.16232 -4.534676,0.48698 -0.255115,0.27656 -0.382672,1.52708 -0.382672,3.75156 v 10.76769 h -4.496409 z m 24.39479,7.503115 h 4.496409 v 19.24477 h -4.496409 z m 12.972002,26.74787 h -4.49641 V 106.0256 h 4.49641 v 1.83971 c 0.11481,-0.13227 0.24236,-0.25852 0.38267,-0.37876 0.79086,-0.67336 1.53708,-1.0882 2.23864,-1.24451 0.61227,-0.14429 1.85596,-0.21644 3.73106,-0.21644 h 0.15307 c 2.09195,0 3.58438,0.0722 4.47728,0.21644 1.2118,0.20442 2.19399,0.62526 2.94659,1.26255 0.76534,0.67335 1.2947,1.5932 1.58808,2.75955 0.26788,1.05814 0.40181,2.61527 0.40181,4.67141 v 1.40683 c 0,1.984 -0.0701,3.38482 -0.21047,4.20247 -0.2041,1.14229 -0.64417,2.07418 -1.32022,2.79563 -0.70156,0.7455 -1.67101,1.25653 -2.90832,1.53309 -1.1225,0.26453 -2.78075,0.3968 -4.97475,0.3968 h -0.15307 c -1.9899,0 -3.38666,-0.12025 -4.19027,-0.36073 -0.71432,-0.21643 -1.43502,-0.70342 -2.1621,-1.46094 z m 0,-15.94411 c 0,2.20043 0.12756,3.43291 0.38267,3.69745 0.3189,0.33668 1.83045,0.50501 4.53468,0.50501 h 1.58809 c 2.71698,0 4.22854,-0.16232 4.53468,-0.48697 0.25511,-0.27656 0.38268,-1.67738 0.38268,-4.20247 v -1.40683 c 0,-2.56116 -0.1722,-3.99204 -0.51662,-4.29265 -0.29338,-0.25251 -1.76029,-0.37876 -4.40074,-0.37876 h -1.58809 c -2.64044,0 -4.10736,0.12024 -4.40074,0.36073 -0.3444,0.3006 -0.51661,1.64131 -0.51661,4.0221 z"
       id="text1"
       aria-label="Chip"
       sodipodi:nodetypes="ccscsscsscsscsccscccsscccsscccsscccsccccccscccsccscsscscccccccccccccccsscccsscccsscccscsscsscsscss" />
    <ellipse
       style="display:inline;fill:none;fill-opacity:1;stroke:#ffaa00;stroke-width:1.82223;stroke-dasharray:none;stroke-opacity:1"
       id="path1"
       cx="94.520386"
       cy="100.41965"
       rx="2.2420237"
       ry="2.2439227" />
  </g>
  <g
     id="g13"
     inkscape:label="BottomTrace"
     transform="matrix(0.76891135,0,0,0.76891135,56.750417,-33.578064)">
    <path
       style="fill:#ffaa00;fill-opacity:1;stroke:none;stroke-width:1.7;stroke-dasharray:none;stroke-opacity:1"
       d="m 125.61745,140.87789 c 0.97944,-0.031 2.38763,-0.16544 3.88287,-1.53229 l -0.016,4.68815 c -1.43091,-1.35992 -2.97253,-1.44002 -3.86692,-1.45515 z"
       id="path7"
       sodipodi:nodetypes="ccccc" />
    <path
       style="display:inline;fill:#ffaa00;fill-opacity:1;stroke:none;stroke-width:1.7;stroke-dasharray:none;stroke-opacity:1"
       d="m 170.99626,134.54095 c 0.97944,-0.031 2.38763,-0.16544 3.88287,-1.53229 l -0.016,4.68815 c -1.43091,-1.35992 -2.97253,-1.44002 -3.86692,-1.45515 z"
       id="path9"
       sodipodi:nodetypes="ccccc" />
    <ellipse
       style="display:inline;fill:none;fill-opacity:1;stroke:#ffaa00;stroke-width:1.82223;stroke-dasharray:none;stroke-opacity:1"
       id="path1-1"
       cx="131.60522"
       cy="141.69585"
       rx="2.2420237"
       ry="2.2439227" />
    <ellipse
       style="display:inline;fill:none;fill-opacity:1;stroke:#ffaa00;stroke-width:1.82223;stroke-dasharray:none;stroke-opacity:1"
       id="path1-14"
       cx="176.97162"
       cy="135.36398"
       rx="2.2420237"
       ry="2.2439227" />
    <ellipse
       style="display:inline;fill:none;fill-opacity:1;stroke:#ffaa00;stroke-width:1.82223;stroke-dasharray:none;stroke-opacity:1"
       id="path1-18"
       cx="46.591496"
       cy="136.71204"
       rx="2.2420237"
       ry="2.2439227" />
    <path
       style="display:inline;fill:none;fill-rule:evenodd;stroke:#ffaa00;stroke-width:1.7;stroke-linecap:butt;stroke-linejoin:miter;stroke-dasharray:none;stroke-opacity:1"
       d="m 132.96904,140.41552 c 2.7041,-2.9208 2.05827,-2.29609 3.94295,-4.22007 0.741,-0.75646 0.86373,-0.80013 2.46923,-0.80612 3.49181,-0.013 30.72785,0.008 35.59837,-0.004"
       id="path4"
       sodipodi:nodetypes="cssc" />
    <path
       style="display:inline;fill:none;fill-rule:evenodd;stroke:#ffaa00;stroke-width:1.7;stroke-linecap:butt;stroke-linejoin:miter;stroke-dasharray:none;stroke-opacity:1"
       d="m 48.45176,136.67509 c 18.810049,-0.002 10.885707,0.0341 32.462818,0.0239 1.335711,-6.3e-4 1.678572,0.30004 2.297675,0.98424 2.433959,2.68986 0.546028,0.65088 2.750684,3.01296 0.329955,0.35351 0.922432,1.00674 1.784801,1.00907 6.902248,0.0187 28.354742,0.0473 41.780422,0.0148"
       id="path5"
       sodipodi:nodetypes="cssssc" />
    <path
       style="display:inline;fill:#ffaa00;fill-opacity:1;stroke:none;stroke-width:1.7;stroke-dasharray:none;stroke-opacity:1"
       d="m 52.574078,137.52576 c -0.97944,0.031 -2.38763,0.16544 -3.88287,1.53229 l 0.016,-4.68815 c 1.43091,1.35992 2.97253,1.44002 3.86692,1.45515 z"
       id="path10"
       sodipodi:nodetypes="ccccc" />
    <path
       style="display:inline;fill:#ffaa00;fill-opacity:1;stroke:none;stroke-width:1.7;stroke-dasharray:none;stroke-opacity:1"
       d="m 136.36486,137.98006 c -0.66058,0.7238 -1.54595,1.82708 -1.60853,3.85191 l -3.3498,-3.27989 c 1.97252,-0.0777 3.10473,-1.12708 3.7391,-1.75778 z"
       id="path11"
       sodipodi:nodetypes="ccccc" />
  </g>
  <g
     id="g12"
     inkscape:label="TopTrace"
     transform="matrix(0.76891135,0,0,0.76891135,56.750417,-33.578064)">
    <path
       style="display:inline;fill:#ffaa00;fill-opacity:1;stroke:none;stroke-width:1.7;stroke-dasharray:none;stroke-opacity:1"
       d="m 142.36188,129.0153 c 0.97944,-0.031 2.38763,-0.16544 3.88287,-1.53229 l -0.016,4.68815 c -1.43091,-1.35992 -2.97253,-1.44002 -3.86692,-1.45515 z"
       id="path8"
       sodipodi:nodetypes="ccccc" />
    <ellipse
       style="display:inline;fill:none;fill-opacity:1;stroke:#ffaa00;stroke-width:1.82223;stroke-dasharray:none;stroke-opacity:1"
       id="path1-5"
       cx="148.31203"
       cy="129.86003"
       rx="2.2420237"
       ry="2.2439227" />
    <ellipse
       style="display:inline;fill:none;fill-opacity:1;stroke:#ffaa00;stroke-width:1.82223;stroke-dasharray:none;stroke-opacity:1"
       id="path1-16"
       cx="41.14814"
       cy="130.0862"
       rx="2.2420237"
       ry="2.2439227" />
    <path
       style="display:inline;fill:none;fill-rule:evenodd;stroke:#ffaa00;stroke-width:1.7;stroke-linecap:butt;stroke-linejoin:miter;stroke-dasharray:none;stroke-opacity:1"
       d="m 124.34503,136.30724 c 3.19808,-0.0309 2.48598,0.007 4.66687,-0.009 0.96075,-0.007 1.26837,-0.35684 1.79974,-0.9308 2.7041,-2.9208 2.44189,-2.6658 4.32657,-4.58978 0.741,-0.75646 0.96702,-0.90342 2.57252,-0.90941 3.49181,-0.013 3.48878,0.008 8.3593,-0.004"
       id="path2"
       sodipodi:nodetypes="cssssc" />
    <path
       style="display:inline;fill:none;fill-rule:evenodd;stroke:#ffaa00;stroke-width:1.7;stroke-linecap:butt;stroke-linejoin:miter;stroke-dasharray:none;stroke-opacity:1"
       d="m 43.332262,130.05313 c 18.810049,-0.002 18.815365,-0.13285 40.420299,0.0239 1.335674,0.01 1.658898,0.23118 2.278001,0.91538 2.433959,2.68986 2.041449,2.19211 4.246105,4.55419 0.329955,0.35351 0.983721,0.75831 1.84609,0.76064 6.902248,0.0187 21.682773,0.0234 35.108453,-0.009"
       id="path3"
       sodipodi:nodetypes="cssssc" />
    <path
       style="display:inline;fill:#ffaa00;fill-opacity:1;stroke:none;stroke-width:1.7;stroke-dasharray:none;stroke-opacity:1"
       d="m 47.125315,130.89878 c -0.97944,0.031 -2.38763,0.16544 -3.88287,1.53229 l 0.016,-4.68815 c 1.43091,1.35992 2.97253,1.44002 3.86692,1.45515 z"
       id="path12"
       sodipodi:nodetypes="ccccc" />
  </g>
</svg>
