<?xml version="1.0" encoding="UTF-8" standalone="no"?>
<!-- Created with Inkscape (http://www.inkscape.org/) -->

<svg
   width="47.764542mm"
   height="48.359863mm"
   viewBox="0 0 47.764543 48.359863"
   version="1.1"
   id="svg1"
   xml:space="preserve"
   inkscape:version="1.4.2 (f4327f4, 2025-05-13)"
   sodipodi:docname="ICON.svg"
   xmlns:inkscape="http://www.inkscape.org/namespaces/inkscape"
   xmlns:sodipodi="http://sodipodi.sourceforge.net/DTD/sodipodi-0.dtd"
   xmlns:xlink="http://www.w3.org/1999/xlink"
   xmlns="http://www.w3.org/2000/svg"
   xmlns:svg="http://www.w3.org/2000/svg"><sodipodi:namedview
     id="namedview1"
     pagecolor="#ffffff"
     bordercolor="#000000"
     borderopacity="0.25"
     inkscape:showpageshadow="2"
     inkscape:pageopacity="0.0"
     inkscape:pagecheckerboard="0"
     inkscape:deskcolor="#d1d1d1"
     inkscape:document-units="mm"
     inkscape:zoom="4"
     inkscape:cx="-29.25"
     inkscape:cy="20.625"
     inkscape:window-width="3840"
     inkscape:window-height="2089"
     inkscape:window-x="3832"
     inkscape:window-y="224"
     inkscape:window-maximized="1"
     inkscape:current-layer="layer1" /><defs
     id="defs1"><linearGradient
       id="linearGradient9"
       inkscape:collect="always"><stop
         style="stop-color:#b4b4b4;stop-opacity:1;"
         offset="0"
         id="stop6" /><stop
         style="stop-color:#787878;stop-opacity:1;"
         offset="0.43286219"
         id="stop7" /><stop
         style="stop-color:#787878;stop-opacity:1;"
         offset="0.51943463"
         id="stop8" /><stop
         style="stop-color:#b4b4b4;stop-opacity:1;"
         offset="1"
         id="stop9" /></linearGradient><linearGradient
       id="linearGradient2"
       inkscape:collect="always"><stop
         style="stop-color:#b4b4b4;stop-opacity:1;"
         offset="0"
         id="stop2" /><stop
         style="stop-color:#ffffff;stop-opacity:1;"
         offset="0.43286219"
         id="stop4" /><stop
         style="stop-color:#ffffff;stop-opacity:1;"
         offset="0.51943463"
         id="stop5" /><stop
         style="stop-color:#b4b4b4;stop-opacity:1;"
         offset="1"
         id="stop3" /></linearGradient><linearGradient
       inkscape:collect="always"
       xlink:href="#linearGradient2"
       id="linearGradient3"
       x1="130.22028"
       y1="91.713203"
       x2="131.24944"
       y2="91.713203"
       gradientUnits="userSpaceOnUse"
       gradientTransform="translate(-0.13446998)" /><linearGradient
       inkscape:collect="always"
       xlink:href="#linearGradient9"
       id="linearGradient5"
       gradientUnits="userSpaceOnUse"
       gradientTransform="translate(1.1460434,-0.00275058)"
       x1="130.22028"
       y1="91.713203"
       x2="131.24944"
       y2="91.713203" /><linearGradient
       inkscape:collect="always"
       xlink:href="#linearGradient2"
       id="linearGradient10"
       gradientUnits="userSpaceOnUse"
       gradientTransform="translate(-0.13446998)"
       x1="130.22028"
       y1="91.713203"
       x2="131.24944"
       y2="91.713203" /><linearGradient
       inkscape:collect="always"
       xlink:href="#linearGradient9"
       id="linearGradient11"
       gradientUnits="userSpaceOnUse"
       gradientTransform="translate(1.1460434,-0.00275058)"
       x1="130.22028"
       y1="91.713203"
       x2="131.24944"
       y2="91.713203" /><linearGradient
       inkscape:collect="always"
       xlink:href="#linearGradient2"
       id="linearGradient12"
       gradientUnits="userSpaceOnUse"
       gradientTransform="translate(-0.13446998)"
       x1="130.22028"
       y1="91.713203"
       x2="131.24944"
       y2="91.713203" /><linearGradient
       inkscape:collect="always"
       xlink:href="#linearGradient9"
       id="linearGradient13"
       gradientUnits="userSpaceOnUse"
       gradientTransform="translate(1.1460434,-0.00275058)"
       x1="130.22028"
       y1="91.713203"
       x2="131.24944"
       y2="91.713203" /><linearGradient
       inkscape:collect="always"
       xlink:href="#linearGradient2"
       id="linearGradient14"
       gradientUnits="userSpaceOnUse"
       gradientTransform="translate(-0.13446998)"
       x1="130.22028"
       y1="91.713203"
       x2="131.24944"
       y2="91.713203" /><linearGradient
       inkscape:collect="always"
       xlink:href="#linearGradient9"
       id="linearGradient15"
       gradientUnits="userSpaceOnUse"
       gradientTransform="translate(1.1460434,-0.00275058)"
       x1="130.22028"
       y1="91.713203"
       x2="131.24944"
       y2="91.713203" /><linearGradient
       inkscape:collect="always"
       xlink:href="#linearGradient2"
       id="linearGradient16"
       gradientUnits="userSpaceOnUse"
       gradientTransform="translate(-0.13446998)"
       x1="130.22028"
       y1="91.713203"
       x2="131.24944"
       y2="91.713203" /><linearGradient
       inkscape:collect="always"
       xlink:href="#linearGradient9"
       id="linearGradient17"
       gradientUnits="userSpaceOnUse"
       gradientTransform="translate(1.1460434,-0.00275058)"
       x1="130.22028"
       y1="91.713203"
       x2="131.24944"
       y2="91.713203" /><linearGradient
       inkscape:collect="always"
       xlink:href="#linearGradient2"
       id="linearGradient18"
       gradientUnits="userSpaceOnUse"
       gradientTransform="translate(-0.13446998)"
       x1="130.22028"
       y1="91.713203"
       x2="131.24944"
       y2="91.713203" /><linearGradient
       inkscape:collect="always"
       xlink:href="#linearGradient9"
       id="linearGradient19"
       gradientUnits="userSpaceOnUse"
       gradientTransform="translate(1.1460434,-0.00275058)"
       x1="130.22028"
       y1="91.713203"
       x2="131.24944"
       y2="91.713203" /><linearGradient
       inkscape:collect="always"
       xlink:href="#linearGradient2"
       id="linearGradient37"
       gradientUnits="userSpaceOnUse"
       gradientTransform="translate(-0.13446998)"
       x1="130.22028"
       y1="91.713203"
       x2="131.24944"
       y2="91.713203" /><linearGradient
       inkscape:collect="always"
       xlink:href="#linearGradient9"
       id="linearGradient38"
       gradientUnits="userSpaceOnUse"
       gradientTransform="translate(1.1460434,-0.00275058)"
       x1="130.22028"
       y1="91.713203"
       x2="131.24944"
       y2="91.713203" /><linearGradient
       inkscape:collect="always"
       xlink:href="#linearGradient2"
       id="linearGradient39"
       gradientUnits="userSpaceOnUse"
       gradientTransform="translate(-0.13446998)"
       x1="130.22028"
       y1="91.713203"
       x2="131.24944"
       y2="91.713203" /><linearGradient
       inkscape:collect="always"
       xlink:href="#linearGradient9"
       id="linearGradient40"
       gradientUnits="userSpaceOnUse"
       gradientTransform="translate(1.1460434,-0.00275058)"
       x1="130.22028"
       y1="91.713203"
       x2="131.24944"
       y2="91.713203" /><linearGradient
       inkscape:collect="always"
       xlink:href="#linearGradient2"
       id="linearGradient41"
       gradientUnits="userSpaceOnUse"
       gradientTransform="translate(-0.13446998)"
       x1="130.22028"
       y1="91.713203"
       x2="131.24944"
       y2="91.713203" /><linearGradient
       inkscape:collect="always"
       xlink:href="#linearGradient9"
       id="linearGradient42"
       gradientUnits="userSpaceOnUse"
       gradientTransform="translate(1.1460434,-0.00275058)"
       x1="130.22028"
       y1="91.713203"
       x2="131.24944"
       y2="91.713203" /><linearGradient
       inkscape:collect="always"
       xlink:href="#linearGradient2"
       id="linearGradient43"
       gradientUnits="userSpaceOnUse"
       gradientTransform="translate(-0.13446998)"
       x1="130.22028"
       y1="91.713203"
       x2="131.24944"
       y2="91.713203" /><linearGradient
       inkscape:collect="always"
       xlink:href="#linearGradient9"
       id="linearGradient44"
       gradientUnits="userSpaceOnUse"
       gradientTransform="translate(1.1460434,-0.00275058)"
       x1="130.22028"
       y1="91.713203"
       x2="131.24944"
       y2="91.713203" /><linearGradient
       inkscape:collect="always"
       xlink:href="#linearGradient2"
       id="linearGradient45"
       gradientUnits="userSpaceOnUse"
       gradientTransform="translate(-0.13446998)"
       x1="130.22028"
       y1="91.713203"
       x2="131.24944"
       y2="91.713203" /><linearGradient
       inkscape:collect="always"
       xlink:href="#linearGradient9"
       id="linearGradient46"
       gradientUnits="userSpaceOnUse"
       gradientTransform="translate(1.1460434,-0.00275058)"
       x1="130.22028"
       y1="91.713203"
       x2="131.24944"
       y2="91.713203" /><linearGradient
       inkscape:collect="always"
       xlink:href="#linearGradient2"
       id="linearGradient47"
       gradientUnits="userSpaceOnUse"
       gradientTransform="translate(-0.13446998)"
       x1="130.22028"
       y1="91.713203"
       x2="131.24944"
       y2="91.713203" /><linearGradient
       inkscape:collect="always"
       xlink:href="#linearGradient9"
       id="linearGradient48"
       gradientUnits="userSpaceOnUse"
       gradientTransform="translate(1.1460434,-0.00275058)"
       x1="130.22028"
       y1="91.713203"
       x2="131.24944"
       y2="91.713203" /><linearGradient
       inkscape:collect="always"
       xlink:href="#linearGradient2"
       id="linearGradient66"
       gradientUnits="userSpaceOnUse"
       gradientTransform="translate(-0.13446998)"
       x1="130.22028"
       y1="91.713203"
       x2="131.24944"
       y2="91.713203" /><linearGradient
       inkscape:collect="always"
       xlink:href="#linearGradient9"
       id="linearGradient67"
       gradientUnits="userSpaceOnUse"
       gradientTransform="translate(1.1460434,-0.00275058)"
       x1="130.22028"
       y1="91.713203"
       x2="131.24944"
       y2="91.713203" /><linearGradient
       inkscape:collect="always"
       xlink:href="#linearGradient2"
       id="linearGradient68"
       gradientUnits="userSpaceOnUse"
       gradientTransform="translate(-0.13446998)"
       x1="130.22028"
       y1="91.713203"
       x2="131.24944"
       y2="91.713203" /><linearGradient
       inkscape:collect="always"
       xlink:href="#linearGradient9"
       id="linearGradient69"
       gradientUnits="userSpaceOnUse"
       gradientTransform="translate(1.1460434,-0.00275058)"
       x1="130.22028"
       y1="91.713203"
       x2="131.24944"
       y2="91.713203" /><linearGradient
       inkscape:collect="always"
       xlink:href="#linearGradient2"
       id="linearGradient70"
       gradientUnits="userSpaceOnUse"
       gradientTransform="translate(-0.13446998)"
       x1="130.22028"
       y1="91.713203"
       x2="131.24944"
       y2="91.713203" /><linearGradient
       inkscape:collect="always"
       xlink:href="#linearGradient9"
       id="linearGradient71"
       gradientUnits="userSpaceOnUse"
       gradientTransform="translate(1.1460434,-0.00275058)"
       x1="130.22028"
       y1="91.713203"
       x2="131.24944"
       y2="91.713203" /><linearGradient
       inkscape:collect="always"
       xlink:href="#linearGradient2"
       id="linearGradient72"
       gradientUnits="userSpaceOnUse"
       gradientTransform="translate(-0.13446998)"
       x1="130.22028"
       y1="91.713203"
       x2="131.24944"
       y2="91.713203" /><linearGradient
       inkscape:collect="always"
       xlink:href="#linearGradient9"
       id="linearGradient73"
       gradientUnits="userSpaceOnUse"
       gradientTransform="translate(1.1460434,-0.00275058)"
       x1="130.22028"
       y1="91.713203"
       x2="131.24944"
       y2="91.713203" /><linearGradient
       inkscape:collect="always"
       xlink:href="#linearGradient2"
       id="linearGradient74"
       gradientUnits="userSpaceOnUse"
       gradientTransform="translate(-0.13446998)"
       x1="130.22028"
       y1="91.713203"
       x2="131.24944"
       y2="91.713203" /><linearGradient
       inkscape:collect="always"
       xlink:href="#linearGradient9"
       id="linearGradient75"
       gradientUnits="userSpaceOnUse"
       gradientTransform="translate(1.1460434,-0.00275058)"
       x1="130.22028"
       y1="91.713203"
       x2="131.24944"
       y2="91.713203" /><linearGradient
       inkscape:collect="always"
       xlink:href="#linearGradient2"
       id="linearGradient76"
       gradientUnits="userSpaceOnUse"
       gradientTransform="translate(-0.13446998)"
       x1="130.22028"
       y1="91.713203"
       x2="131.24944"
       y2="91.713203" /><linearGradient
       inkscape:collect="always"
       xlink:href="#linearGradient9"
       id="linearGradient77"
       gradientUnits="userSpaceOnUse"
       gradientTransform="translate(1.1460434,-0.00275058)"
       x1="130.22028"
       y1="91.713203"
       x2="131.24944"
       y2="91.713203" /><linearGradient
       inkscape:collect="always"
       xlink:href="#linearGradient2"
       id="linearGradient95"
       gradientUnits="userSpaceOnUse"
       gradientTransform="translate(-0.13446998)"
       x1="130.22028"
       y1="91.713203"
       x2="131.24944"
       y2="91.713203" /><linearGradient
       inkscape:collect="always"
       xlink:href="#linearGradient9"
       id="linearGradient96"
       gradientUnits="userSpaceOnUse"
       gradientTransform="translate(1.1460434,-0.00275058)"
       x1="130.22028"
       y1="91.713203"
       x2="131.24944"
       y2="91.713203" /><linearGradient
       inkscape:collect="always"
       xlink:href="#linearGradient2"
       id="linearGradient97"
       gradientUnits="userSpaceOnUse"
       gradientTransform="translate(-0.13446998)"
       x1="130.22028"
       y1="91.713203"
       x2="131.24944"
       y2="91.713203" /><linearGradient
       inkscape:collect="always"
       xlink:href="#linearGradient9"
       id="linearGradient98"
       gradientUnits="userSpaceOnUse"
       gradientTransform="translate(1.1460434,-0.00275058)"
       x1="130.22028"
       y1="91.713203"
       x2="131.24944"
       y2="91.713203" /><linearGradient
       inkscape:collect="always"
       xlink:href="#linearGradient2"
       id="linearGradient99"
       gradientUnits="userSpaceOnUse"
       gradientTransform="translate(-0.13446998)"
       x1="130.22028"
       y1="91.713203"
       x2="131.24944"
       y2="91.713203" /><linearGradient
       inkscape:collect="always"
       xlink:href="#linearGradient9"
       id="linearGradient100"
       gradientUnits="userSpaceOnUse"
       gradientTransform="translate(1.1460434,-0.00275058)"
       x1="130.22028"
       y1="91.713203"
       x2="131.24944"
       y2="91.713203" /><linearGradient
       inkscape:collect="always"
       xlink:href="#linearGradient2"
       id="linearGradient101"
       gradientUnits="userSpaceOnUse"
       gradientTransform="translate(-0.13446998)"
       x1="130.22028"
       y1="91.713203"
       x2="131.24944"
       y2="91.713203" /><linearGradient
       inkscape:collect="always"
       xlink:href="#linearGradient9"
       id="linearGradient102"
       gradientUnits="userSpaceOnUse"
       gradientTransform="translate(1.1460434,-0.00275058)"
       x1="130.22028"
       y1="91.713203"
       x2="131.24944"
       y2="91.713203" /><linearGradient
       inkscape:collect="always"
       xlink:href="#linearGradient2"
       id="linearGradient103"
       gradientUnits="userSpaceOnUse"
       gradientTransform="translate(-0.13446998)"
       x1="130.22028"
       y1="91.713203"
       x2="131.24944"
       y2="91.713203" /><linearGradient
       inkscape:collect="always"
       xlink:href="#linearGradient9"
       id="linearGradient104"
       gradientUnits="userSpaceOnUse"
       gradientTransform="translate(1.1460434,-0.00275058)"
       x1="130.22028"
       y1="91.713203"
       x2="131.24944"
       y2="91.713203" /><linearGradient
       inkscape:collect="always"
       xlink:href="#linearGradient2"
       id="linearGradient105"
       gradientUnits="userSpaceOnUse"
       gradientTransform="translate(-0.13446998)"
       x1="130.22028"
       y1="91.713203"
       x2="131.24944"
       y2="91.713203" /><linearGradient
       inkscape:collect="always"
       xlink:href="#linearGradient9"
       id="linearGradient106"
       gradientUnits="userSpaceOnUse"
       gradientTransform="translate(1.1460434,-0.00275058)"
       x1="130.22028"
       y1="91.713203"
       x2="131.24944"
       y2="91.713203" /></defs><g
     id="g66"
     transform="rotate(180,66.885333,63.225043)"><g
       id="g50"
       transform="matrix(1,0,0,1.1942532,0.09458309,-22.062166)"><rect
         style="fill:#b4b4b4;fill-opacity:1;stroke:none;stroke-width:0.110032;stroke-dasharray:none;stroke-opacity:1"
         id="rect48"
         width="3.964108"
         height="2.3812501"
         x="129.71198"
         y="90.520576" /><rect
         style="fill:url(#linearGradient66);stroke:none;stroke-width:0.0560643;stroke-dasharray:none;stroke-opacity:1"
         id="rect49"
         width="1.0291544"
         height="2.3812501"
         x="130.0858"
         y="90.522575" /><rect
         style="fill:url(#linearGradient67);stroke:none;stroke-width:0.0560643;stroke-dasharray:none;stroke-opacity:1"
         id="rect50"
         width="1.0291544"
         height="2.3812501"
         x="131.36632"
         y="90.519821" /></g><g
       id="g53"
       transform="matrix(1,0,0,1.1942532,0.09230743,-16.164431)"><rect
         style="fill:#b4b4b4;fill-opacity:1;stroke:none;stroke-width:0.110032;stroke-dasharray:none;stroke-opacity:1"
         id="rect51"
         width="3.964108"
         height="2.3812501"
         x="129.71198"
         y="90.520576" /><rect
         style="fill:url(#linearGradient68);stroke:none;stroke-width:0.0560643;stroke-dasharray:none;stroke-opacity:1"
         id="rect52"
         width="1.0291544"
         height="2.3812501"
         x="130.0858"
         y="90.522575" /><rect
         style="fill:url(#linearGradient69);stroke:none;stroke-width:0.0560643;stroke-dasharray:none;stroke-opacity:1"
         id="rect53"
         width="1.0291544"
         height="2.3812501"
         x="131.36632"
         y="90.519821" /></g><g
       id="g56"
       transform="matrix(1,0,0,1.1942532,0.08578195,-10.26525)"><rect
         style="fill:#b4b4b4;fill-opacity:1;stroke:none;stroke-width:0.110032;stroke-dasharray:none;stroke-opacity:1"
         id="rect54"
         width="3.964108"
         height="2.3812501"
         x="129.71198"
         y="90.520576" /><rect
         style="fill:url(#linearGradient70);stroke:none;stroke-width:0.0560643;stroke-dasharray:none;stroke-opacity:1"
         id="rect55"
         width="1.0291544"
         height="2.3812501"
         x="130.0858"
         y="90.522575" /><rect
         style="fill:url(#linearGradient71);stroke:none;stroke-width:0.0560643;stroke-dasharray:none;stroke-opacity:1"
         id="rect56"
         width="1.0291544"
         height="2.3812501"
         x="131.36632"
         y="90.519821" /></g><g
       id="g59"
       transform="matrix(1,0,0,1.1942532,0.08318294,-4.3698837)"><rect
         style="fill:#b4b4b4;fill-opacity:1;stroke:none;stroke-width:0.110032;stroke-dasharray:none;stroke-opacity:1"
         id="rect57"
         width="3.964108"
         height="2.3812501"
         x="129.71198"
         y="90.520576" /><rect
         style="fill:url(#linearGradient72);stroke:none;stroke-width:0.0560643;stroke-dasharray:none;stroke-opacity:1"
         id="rect58"
         width="1.0291544"
         height="2.3812501"
         x="130.0858"
         y="90.522575" /><rect
         style="fill:url(#linearGradient73);stroke:none;stroke-width:0.0560643;stroke-dasharray:none;stroke-opacity:1"
         id="rect59"
         width="1.0291544"
         height="2.3812501"
         x="131.36632"
         y="90.519821" /></g><g
       id="g62"
       transform="matrix(1,0,0,1.1942532,0.08268167,1.527043)"><rect
         style="fill:#b4b4b4;fill-opacity:1;stroke:none;stroke-width:0.110032;stroke-dasharray:none;stroke-opacity:1"
         id="rect60"
         width="3.964108"
         height="2.3812501"
         x="129.71198"
         y="90.520576" /><rect
         style="fill:url(#linearGradient74);stroke:none;stroke-width:0.0560643;stroke-dasharray:none;stroke-opacity:1"
         id="rect61"
         width="1.0291544"
         height="2.3812501"
         x="130.0858"
         y="90.522575" /><rect
         style="fill:url(#linearGradient75);stroke:none;stroke-width:0.0560643;stroke-dasharray:none;stroke-opacity:1"
         id="rect62"
         width="1.0291544"
         height="2.3812501"
         x="131.36632"
         y="90.519821" /></g><g
       id="g65"
       transform="matrix(1,0,0,1.1942532,0.08268139,7.4159001)"><rect
         style="fill:#b4b4b4;fill-opacity:1;stroke:none;stroke-width:0.110032;stroke-dasharray:none;stroke-opacity:1"
         id="rect63"
         width="3.964108"
         height="2.3812501"
         x="129.71198"
         y="90.520576"
         ry="0" /><rect
         style="fill:url(#linearGradient76);stroke:none;stroke-width:0.0560643;stroke-dasharray:none;stroke-opacity:1"
         id="rect64"
         width="1.0291544"
         height="2.3812501"
         x="130.0858"
         y="90.522575" /><rect
         style="fill:url(#linearGradient77);stroke:none;stroke-width:0.0560643;stroke-dasharray:none;stroke-opacity:1"
         id="rect65"
         width="1.0291544"
         height="2.3812501"
         x="131.36632"
         y="90.519821" /></g></g><g
     id="g95"
     transform="rotate(90,105.64932,20.238516)"><g
       id="g79"
       transform="matrix(1,0,0,1.1942532,0.09458309,-22.062166)"><rect
         style="fill:#b4b4b4;fill-opacity:1;stroke:none;stroke-width:0.110032;stroke-dasharray:none;stroke-opacity:1"
         id="rect77"
         width="3.964108"
         height="2.3812501"
         x="129.71198"
         y="90.520576" /><rect
         style="fill:url(#linearGradient95);stroke:none;stroke-width:0.0560643;stroke-dasharray:none;stroke-opacity:1"
         id="rect78"
         width="1.0291544"
         height="2.3812501"
         x="130.0858"
         y="90.522575" /><rect
         style="fill:url(#linearGradient96);stroke:none;stroke-width:0.0560643;stroke-dasharray:none;stroke-opacity:1"
         id="rect79"
         width="1.0291544"
         height="2.3812501"
         x="131.36632"
         y="90.519821" /></g><g
       id="g82"
       transform="matrix(1,0,0,1.1942532,0.09230743,-16.164431)"><rect
         style="fill:#b4b4b4;fill-opacity:1;stroke:none;stroke-width:0.110032;stroke-dasharray:none;stroke-opacity:1"
         id="rect80"
         width="3.964108"
         height="2.3812501"
         x="129.71198"
         y="90.520576" /><rect
         style="fill:url(#linearGradient97);stroke:none;stroke-width:0.0560643;stroke-dasharray:none;stroke-opacity:1"
         id="rect81"
         width="1.0291544"
         height="2.3812501"
         x="130.0858"
         y="90.522575" /><rect
         style="fill:url(#linearGradient98);stroke:none;stroke-width:0.0560643;stroke-dasharray:none;stroke-opacity:1"
         id="rect82"
         width="1.0291544"
         height="2.3812501"
         x="131.36632"
         y="90.519821" /></g><g
       id="g85"
       transform="matrix(1,0,0,1.1942532,0.08578195,-10.26525)"><rect
         style="fill:#b4b4b4;fill-opacity:1;stroke:none;stroke-width:0.110032;stroke-dasharray:none;stroke-opacity:1"
         id="rect83"
         width="3.964108"
         height="2.3812501"
         x="129.71198"
         y="90.520576" /><rect
         style="fill:url(#linearGradient99);stroke:none;stroke-width:0.0560643;stroke-dasharray:none;stroke-opacity:1"
         id="rect84"
         width="1.0291544"
         height="2.3812501"
         x="130.0858"
         y="90.522575" /><rect
         style="fill:url(#linearGradient100);stroke:none;stroke-width:0.0560643;stroke-dasharray:none;stroke-opacity:1"
         id="rect85"
         width="1.0291544"
         height="2.3812501"
         x="131.36632"
         y="90.519821" /></g><g
       id="g88"
       transform="matrix(1,0,0,1.1942532,0.08318294,-4.3698837)"><rect
         style="fill:#b4b4b4;fill-opacity:1;stroke:none;stroke-width:0.110032;stroke-dasharray:none;stroke-opacity:1"
         id="rect86"
         width="3.964108"
         height="2.3812501"
         x="129.71198"
         y="90.520576" /><rect
         style="fill:url(#linearGradient101);stroke:none;stroke-width:0.0560643;stroke-dasharray:none;stroke-opacity:1"
         id="rect87"
         width="1.0291544"
         height="2.3812501"
         x="130.0858"
         y="90.522575" /><rect
         style="fill:url(#linearGradient102);stroke:none;stroke-width:0.0560643;stroke-dasharray:none;stroke-opacity:1"
         id="rect88"
         width="1.0291544"
         height="2.3812501"
         x="131.36632"
         y="90.519821" /></g><g
       id="g91"
       transform="matrix(1,0,0,1.1942532,0.08268167,1.527043)"><rect
         style="fill:#b4b4b4;fill-opacity:1;stroke:none;stroke-width:0.110032;stroke-dasharray:none;stroke-opacity:1"
         id="rect89"
         width="3.964108"
         height="2.3812501"
         x="129.71198"
         y="90.520576" /><rect
         style="fill:url(#linearGradient103);stroke:none;stroke-width:0.0560643;stroke-dasharray:none;stroke-opacity:1"
         id="rect90"
         width="1.0291544"
         height="2.3812501"
         x="130.0858"
         y="90.522575" /><rect
         style="fill:url(#linearGradient104);stroke:none;stroke-width:0.0560643;stroke-dasharray:none;stroke-opacity:1"
         id="rect91"
         width="1.0291544"
         height="2.3812501"
         x="131.36632"
         y="90.519821" /></g><g
       id="g94"
       transform="matrix(1,0,0,1.1942532,0.08268139,7.4159001)"><rect
         style="fill:#b4b4b4;fill-opacity:1;stroke:none;stroke-width:0.110032;stroke-dasharray:none;stroke-opacity:1"
         id="rect92"
         width="3.964108"
         height="2.3812501"
         x="129.71198"
         y="90.520576"
         ry="0" /><rect
         style="fill:url(#linearGradient105);stroke:none;stroke-width:0.0560643;stroke-dasharray:none;stroke-opacity:1"
         id="rect93"
         width="1.0291544"
         height="2.3812501"
         x="130.0858"
         y="90.522575" /><rect
         style="fill:url(#linearGradient106);stroke:none;stroke-width:0.0560643;stroke-dasharray:none;stroke-opacity:1"
         id="rect94"
         width="1.0291544"
         height="2.3812501"
         x="131.36632"
         y="90.519821" /></g></g><g
     id="g37"
     transform="rotate(-90,27.625246,106.14542)"><g
       id="g21"
       transform="matrix(1,0,0,1.1942532,0.09458309,-22.062166)"><rect
         style="fill:#b4b4b4;fill-opacity:1;stroke:none;stroke-width:0.110032;stroke-dasharray:none;stroke-opacity:1"
         id="rect19"
         width="3.964108"
         height="2.3812501"
         x="129.71198"
         y="90.520576" /><rect
         style="fill:url(#linearGradient37);stroke:none;stroke-width:0.0560643;stroke-dasharray:none;stroke-opacity:1"
         id="rect20"
         width="1.0291544"
         height="2.3812501"
         x="130.0858"
         y="90.522575" /><rect
         style="fill:url(#linearGradient38);stroke:none;stroke-width:0.0560643;stroke-dasharray:none;stroke-opacity:1"
         id="rect21"
         width="1.0291544"
         height="2.3812501"
         x="131.36632"
         y="90.519821" /></g><g
       id="g24"
       transform="matrix(1,0,0,1.1942532,0.09230743,-16.164431)"><rect
         style="fill:#b4b4b4;fill-opacity:1;stroke:none;stroke-width:0.110032;stroke-dasharray:none;stroke-opacity:1"
         id="rect22"
         width="3.964108"
         height="2.3812501"
         x="129.71198"
         y="90.520576" /><rect
         style="fill:url(#linearGradient39);stroke:none;stroke-width:0.0560643;stroke-dasharray:none;stroke-opacity:1"
         id="rect23"
         width="1.0291544"
         height="2.3812501"
         x="130.0858"
         y="90.522575" /><rect
         style="fill:url(#linearGradient40);stroke:none;stroke-width:0.0560643;stroke-dasharray:none;stroke-opacity:1"
         id="rect24"
         width="1.0291544"
         height="2.3812501"
         x="131.36632"
         y="90.519821" /></g><g
       id="g27"
       transform="matrix(1,0,0,1.1942532,0.08578195,-10.26525)"><rect
         style="fill:#b4b4b4;fill-opacity:1;stroke:none;stroke-width:0.110032;stroke-dasharray:none;stroke-opacity:1"
         id="rect25"
         width="3.964108"
         height="2.3812501"
         x="129.71198"
         y="90.520576" /><rect
         style="fill:url(#linearGradient41);stroke:none;stroke-width:0.0560643;stroke-dasharray:none;stroke-opacity:1"
         id="rect26"
         width="1.0291544"
         height="2.3812501"
         x="130.0858"
         y="90.522575" /><rect
         style="fill:url(#linearGradient42);stroke:none;stroke-width:0.0560643;stroke-dasharray:none;stroke-opacity:1"
         id="rect27"
         width="1.0291544"
         height="2.3812501"
         x="131.36632"
         y="90.519821" /></g><g
       id="g30"
       transform="matrix(1,0,0,1.1942532,0.08318294,-4.3698837)"><rect
         style="fill:#b4b4b4;fill-opacity:1;stroke:none;stroke-width:0.110032;stroke-dasharray:none;stroke-opacity:1"
         id="rect28"
         width="3.964108"
         height="2.3812501"
         x="129.71198"
         y="90.520576" /><rect
         style="fill:url(#linearGradient43);stroke:none;stroke-width:0.0560643;stroke-dasharray:none;stroke-opacity:1"
         id="rect29"
         width="1.0291544"
         height="2.3812501"
         x="130.0858"
         y="90.522575" /><rect
         style="fill:url(#linearGradient44);stroke:none;stroke-width:0.0560643;stroke-dasharray:none;stroke-opacity:1"
         id="rect30"
         width="1.0291544"
         height="2.3812501"
         x="131.36632"
         y="90.519821" /></g><g
       id="g33"
       transform="matrix(1,0,0,1.1942532,0.08268167,1.527043)"><rect
         style="fill:#b4b4b4;fill-opacity:1;stroke:none;stroke-width:0.110032;stroke-dasharray:none;stroke-opacity:1"
         id="rect31"
         width="3.964108"
         height="2.3812501"
         x="129.71198"
         y="90.520576" /><rect
         style="fill:url(#linearGradient45);stroke:none;stroke-width:0.0560643;stroke-dasharray:none;stroke-opacity:1"
         id="rect32"
         width="1.0291544"
         height="2.3812501"
         x="130.0858"
         y="90.522575" /><rect
         style="fill:url(#linearGradient46);stroke:none;stroke-width:0.0560643;stroke-dasharray:none;stroke-opacity:1"
         id="rect33"
         width="1.0291544"
         height="2.3812501"
         x="131.36632"
         y="90.519821" /></g><g
       id="g36"
       transform="matrix(1,0,0,1.1942532,0.08268139,7.4159001)"><rect
         style="fill:#b4b4b4;fill-opacity:1;stroke:none;stroke-width:0.110032;stroke-dasharray:none;stroke-opacity:1"
         id="rect34"
         width="3.964108"
         height="2.3812501"
         x="129.71198"
         y="90.520576"
         ry="0" /><rect
         style="fill:url(#linearGradient47);stroke:none;stroke-width:0.0560643;stroke-dasharray:none;stroke-opacity:1"
         id="rect35"
         width="1.0291544"
         height="2.3812501"
         x="130.0858"
         y="90.522575" /><rect
         style="fill:url(#linearGradient48);stroke:none;stroke-width:0.0560643;stroke-dasharray:none;stroke-opacity:1"
         id="rect36"
         width="1.0291544"
         height="2.3812501"
         x="131.36632"
         y="90.519821" /></g></g><g
     id="g19"
     transform="translate(-86.006124,-77.957935)"><g
       id="g9"
       transform="matrix(1,0,0,1.1942532,0.09458309,-22.062166)"><rect
         style="fill:#b4b4b4;fill-opacity:1;stroke:none;stroke-width:0.110032;stroke-dasharray:none;stroke-opacity:1"
         id="rect2"
         width="3.964108"
         height="2.3812501"
         x="129.71198"
         y="90.520576" /><rect
         style="fill:url(#linearGradient3);stroke:none;stroke-width:0.0560643;stroke-dasharray:none;stroke-opacity:1"
         id="rect2-9"
         width="1.0291544"
         height="2.3812501"
         x="130.0858"
         y="90.522575" /><rect
         style="fill:url(#linearGradient5);stroke:none;stroke-width:0.0560643;stroke-dasharray:none;stroke-opacity:1"
         id="rect2-9-2"
         width="1.0291544"
         height="2.3812501"
         x="131.36632"
         y="90.519821" /></g><g
       id="g9-0"
       transform="matrix(1,0,0,1.1942532,0.09230743,-16.164431)"><rect
         style="fill:#b4b4b4;fill-opacity:1;stroke:none;stroke-width:0.110032;stroke-dasharray:none;stroke-opacity:1"
         id="rect2-6"
         width="3.964108"
         height="2.3812501"
         x="129.71198"
         y="90.520576" /><rect
         style="fill:url(#linearGradient10);stroke:none;stroke-width:0.0560643;stroke-dasharray:none;stroke-opacity:1"
         id="rect2-9-1"
         width="1.0291544"
         height="2.3812501"
         x="130.0858"
         y="90.522575" /><rect
         style="fill:url(#linearGradient11);stroke:none;stroke-width:0.0560643;stroke-dasharray:none;stroke-opacity:1"
         id="rect2-9-2-3"
         width="1.0291544"
         height="2.3812501"
         x="131.36632"
         y="90.519821" /></g><g
       id="g9-4"
       transform="matrix(1,0,0,1.1942532,0.08578195,-10.26525)"><rect
         style="fill:#b4b4b4;fill-opacity:1;stroke:none;stroke-width:0.110032;stroke-dasharray:none;stroke-opacity:1"
         id="rect2-96"
         width="3.964108"
         height="2.3812501"
         x="129.71198"
         y="90.520576" /><rect
         style="fill:url(#linearGradient12);stroke:none;stroke-width:0.0560643;stroke-dasharray:none;stroke-opacity:1"
         id="rect2-9-3"
         width="1.0291544"
         height="2.3812501"
         x="130.0858"
         y="90.522575" /><rect
         style="fill:url(#linearGradient13);stroke:none;stroke-width:0.0560643;stroke-dasharray:none;stroke-opacity:1"
         id="rect2-9-2-7"
         width="1.0291544"
         height="2.3812501"
         x="131.36632"
         y="90.519821" /></g><g
       id="g9-7"
       transform="matrix(1,0,0,1.1942532,0.08318294,-4.3698837)"><rect
         style="fill:#b4b4b4;fill-opacity:1;stroke:none;stroke-width:0.110032;stroke-dasharray:none;stroke-opacity:1"
         id="rect2-63"
         width="3.964108"
         height="2.3812501"
         x="129.71198"
         y="90.520576" /><rect
         style="fill:url(#linearGradient14);stroke:none;stroke-width:0.0560643;stroke-dasharray:none;stroke-opacity:1"
         id="rect2-9-6"
         width="1.0291544"
         height="2.3812501"
         x="130.0858"
         y="90.522575" /><rect
         style="fill:url(#linearGradient15);stroke:none;stroke-width:0.0560643;stroke-dasharray:none;stroke-opacity:1"
         id="rect2-9-2-1"
         width="1.0291544"
         height="2.3812501"
         x="131.36632"
         y="90.519821" /></g><g
       id="g9-1"
       transform="matrix(1,0,0,1.1942532,0.08268167,1.527043)"><rect
         style="fill:#b4b4b4;fill-opacity:1;stroke:none;stroke-width:0.110032;stroke-dasharray:none;stroke-opacity:1"
         id="rect2-65"
         width="3.964108"
         height="2.3812501"
         x="129.71198"
         y="90.520576" /><rect
         style="fill:url(#linearGradient16);stroke:none;stroke-width:0.0560643;stroke-dasharray:none;stroke-opacity:1"
         id="rect2-9-7"
         width="1.0291544"
         height="2.3812501"
         x="130.0858"
         y="90.522575" /><rect
         style="fill:url(#linearGradient17);stroke:none;stroke-width:0.0560643;stroke-dasharray:none;stroke-opacity:1"
         id="rect2-9-2-5"
         width="1.0291544"
         height="2.3812501"
         x="131.36632"
         y="90.519821" /></g><g
       id="g9-77"
       transform="matrix(1,0,0,1.1942532,0.08268139,7.4159001)"><rect
         style="fill:#b4b4b4;fill-opacity:1;stroke:none;stroke-width:0.110032;stroke-dasharray:none;stroke-opacity:1"
         id="rect2-7"
         width="3.964108"
         height="2.3812501"
         x="129.71198"
         y="90.520576"
         ry="0" /><rect
         style="fill:url(#linearGradient18);stroke:none;stroke-width:0.0560643;stroke-dasharray:none;stroke-opacity:1"
         id="rect2-9-73"
         width="1.0291544"
         height="2.3812501"
         x="130.0858"
         y="90.522575" /><rect
         style="fill:url(#linearGradient19);stroke:none;stroke-width:0.0560643;stroke-dasharray:none;stroke-opacity:1"
         id="rect2-9-2-35"
         width="1.0291544"
         height="2.3812501"
         x="131.36632"
         y="90.519821" /></g></g><path
     style="fill:#818080;fill-opacity:1;stroke-width:1.00321"
     d="m 8.2386982,44.534656 c -2.015981,-0.004 -2.141706,-0.0652 -2.832323,-0.3796 -0.355788,-0.16192 -0.938137,-0.67027 -1.072182,-0.93596 -0.33163,-0.65728 -0.406037,-0.99362 -0.451867,-2.04245 -0.08483,-1.94123 0.02136,-33.2871158 0.116647,-34.4359598 0.08509,-1.025798 0.234467,-1.375147 0.823451,-1.925713 0.523807,-0.48964 0.962834,-0.67619 1.805262,-0.76708 0.74468,-0.08035 6.1964688,-0.122684 19.6893898,-0.152912 13.77081,-0.03085 14.41371,-0.02567 15.30864,0.123651 0.59444,0.09918 1.24924,0.492973 1.62362,0.976462 0.18472,0.238547 0.37418,0.575528 0.37418,0.665512 0,0.04426 0.0163,0.09552 0.0361,0.1139 0.15383,0.142433 0.15701,0.450589 0.18709,18.1311798 0.0281,16.4697 0.0248,17.5823 -0.0535,18.14641 -0.0458,0.33055 -0.0999,0.63267 -0.12021,0.67138 -0.49885,1.19884 -1.70549,1.56974 -2.19175,1.65908 -0.3343,0.0696 -1.23143,0.1747 -2.61438,0.16774 -2.60129,-0.0131 -19.4641,0.007 -30.6282168,-0.0156 z"
     id="path2"
     sodipodi:nodetypes="ssssssssssscccccss" /><path
     style="display:inline;fill:#000000;stroke-width:0.963744"
     d="m 8.7958132,43.609236 c -1.937643,-0.004 -2.058481,-0.0626 -2.722262,-0.36447 -0.341963,-0.15546 -0.901682,-0.64356 -1.030517,-0.89866 -0.318743,-0.6311 -0.39026,-0.95403 -0.434308,-1.96106 -0.08153,-1.86389 0.02053,-31.9607548 0.112114,-33.0638198 0.08178,-0.984925 0.225357,-1.320353 0.791453,-1.848982 0.503452,-0.47013 0.925419,-0.649246 1.73511,-0.736514 0.715742,-0.07714 5.9556778,-0.117795 18.9242728,-0.14682 13.23567,-0.02962 13.8536,-0.02464 14.71374,0.118724 0.57136,0.09523 1.2007,0.47333 1.56054,0.937555 0.17754,0.229042 0.35965,0.552595 0.35965,0.638993 0,0.04249 0.0156,0.09171 0.0347,0.109361 0.14786,0.136758 0.15091,0.432634 0.17984,17.4087128 0.027,15.81345 0.0238,16.88171 -0.0514,17.42335 -0.044,0.31737 -0.096,0.60745 -0.11555,0.64463 -0.47947,1.15107 -1.63921,1.50719 -2.10658,1.59296 -0.32131,0.0668 -1.18357,0.16774 -2.51279,0.16107 -2.50021,-0.0125 -18.70774,0.007 -29.4380128,-0.015 z"
     id="path1"
     sodipodi:nodetypes="ssssssssssscccccss"
     sodipodi:insensitive="true" /><g
     inkscape:label="Layer 1"
     inkscape:groupmode="layer"
     id="layer1"
     transform="translate(-123.88419,-168.49733)"><path
       style="display:inline;fill:#ffffff;fill-opacity:1;stroke:none;stroke-width:1.00035"
       d="m 134.3343,184.18667 c -0.0117,-0.0436 -0.0367,-0.38583 -0.0555,-0.76057 -0.0603,-1.19878 -0.10687,-1.62477 -0.20379,-1.86331 -0.0163,-0.04 -0.0295,-0.10693 -0.0295,-0.14866 0,-0.0418 -0.015,-0.0847 -0.0333,-0.0954 -0.0184,-0.0107 -0.0333,-0.0467 -0.0333,-0.08 0,-0.14132 -0.28039,-0.77079 -0.42192,-0.94717 -0.29737,-0.37066 -0.61685,-0.6005 -0.99448,-0.71549 -0.10998,-0.0335 -0.21421,-0.0722 -0.23163,-0.086 -0.0174,-0.0138 -0.0727,-0.0252 -0.123,-0.0252 -0.0503,0 -0.0996,-0.0127 -0.10967,-0.0282 -0.0103,-0.0155 -0.0672,-0.0353 -0.12694,-0.0439 -0.0597,-0.009 -0.2361,-0.04 -0.39191,-0.0697 -0.42631,-0.0814 -0.7166,-0.10939 -1.45675,-0.14062 -0.37046,-0.0156 -0.73789,-0.0396 -0.81651,-0.0534 l -0.14294,-0.025 0.24995,-0.0394 c 0.13747,-0.0217 0.3413,-0.0403 0.45295,-0.0415 0.11165,-9.7e-4 0.32161,-0.0164 0.46657,-0.0339 0.14497,-0.0176 0.44355,-0.0457 0.66351,-0.0623 0.21996,-0.0167 0.47116,-0.0451 0.55823,-0.0631 0.0871,-0.0181 0.22204,-0.0461 0.29994,-0.0624 0.65932,-0.13812 1.06153,-0.30303 1.3495,-0.5533 0.16158,-0.14041 0.44183,-0.46272 0.44183,-0.50813 0,-0.009 0.0391,-0.0987 0.0868,-0.19942 0.0477,-0.1007 0.0996,-0.2116 0.11535,-0.24646 0.0291,-0.0647 0.0863,-0.26359 0.22954,-0.80019 0.10238,-0.38355 0.2687,-1.9608 0.26978,-2.55901 8.6e-4,-0.47923 0.06,-0.1696 0.0971,0.50849 0.02,0.36524 0.0497,0.77815 0.0662,0.91758 0.0758,0.64604 0.10377,0.85204 0.13228,0.97582 0.0169,0.0734 0.0482,0.21891 0.0698,0.3235 0.0214,0.10458 0.0526,0.2149 0.0693,0.24516 0.0167,0.0302 0.0304,0.075 0.0304,0.0994 0,0.088 0.11714,0.39005 0.25964,0.66957 0.22858,0.44838 0.52817,0.6913 1.15676,0.93796 0.0753,0.0296 0.36633,0.11143 0.56656,0.15941 0.0733,0.0175 0.17937,0.0453 0.23565,0.0615 0.0563,0.0163 0.14029,0.0296 0.18666,0.0296 0.0464,0 0.12779,0.0139 0.18093,0.0309 0.13283,0.0425 0.61915,0.0897 1.31306,0.12724 0.32077,0.0174 0.66571,0.0414 0.76652,0.0533 l 0.1833,0.0217 -0.14997,0.0243 c -0.1456,0.0236 -0.69461,0.0663 -1.58304,0.12327 -0.23828,0.0152 -0.55322,0.0511 -0.69987,0.0798 -0.14663,0.0286 -0.3116,0.0589 -0.36658,0.0673 -0.055,0.009 -0.12998,0.0271 -0.16664,0.0417 -0.0366,0.0145 -0.15664,0.0509 -0.26662,0.081 -0.47377,0.12942 -0.91959,0.42173 -1.20631,0.79096 -0.15169,0.19535 -0.32379,0.56614 -0.42681,0.91959 -0.0305,0.10458 -0.0692,0.21491 -0.086,0.24517 -0.0168,0.0302 -0.0306,0.0959 -0.0306,0.1458 0,0.0499 -0.0145,0.13212 -0.0321,0.18265 -0.0384,0.10986 -0.1075,0.72352 -0.19789,1.75624 -0.0206,0.23564 -0.05,0.49233 -0.0652,0.57043 -0.0241,0.12322 -0.0306,0.13153 -0.049,0.0628 z"
       id="path6"
       sodipodi:nodetypes="cccsssssssccssscssssssssscssscccsssssssssscssssssssssssscc"
       inkscape:label="Star" /><path
       d="m 134.03178,210.90871 h 2.80934 v -6.27662 h 8.13559 v -2.66373 h -8.13559 v -4.17421 h 9.58014 v -2.83723 h -12.38948 z m 12.90569,0 h 3.39426 l 4.03234,-5.73571 3.94371,5.73571 h 3.44744 l -5.60983,-8.13408 5.42372,-7.81771 h -3.3854 l -3.69557,5.49076 -3.67785,-5.49076 h -3.43857 l 5.32624,7.84832 z"
       id="text2"
       style="font-size:32.1291px;font-family:'Krona One';-inkscape-font-specification:'Krona One';letter-spacing:-0.654994px;display:inline;fill:#e10000;fill-opacity:1;stroke-width:0.132799"
       aria-label="FX"
       inkscape:label="FX" /></g><polyline
     points="2,60 18,60 26,20 34,75 42,40 52,40 60,60 76,60"
     fill="none"
     stroke="#f0c040"
     stroke-width="2.2"
     stroke-linejoin="round"
     stroke-linecap="round"
     id="polyline1"
     transform="matrix(0.31353255,0,0,0.31353255,17.145311,-0.30928536)"
     style="stroke-width:4.53543;stroke-dasharray:none" /><polyline
     points="2,70 14,70 22,45 32,82 44,55 58,55 68,70 76,70"
     fill="none"
     stroke="#40c0f0"
     stroke-width="1.5"
     stroke-linejoin="round"
     stroke-linecap="round"
     opacity="0.7"
     id="polyline2"
     transform="matrix(0.31353255,0,0,0.31353255,17.145311,-0.26129859)"
     style="stroke-width:3.02362;stroke-dasharray:none" /></svg>
